<mxfile host="Electron" agent="Mozilla/5.0 (X11; Linux x86_64) AppleWebKit/537.36 (KHTML, like Gecko) draw.io/26.1.1 Chrome/132.0.6834.210 Electron/34.3.3 Safari/537.36" version="26.1.1">
  <diagram name="第 1 页" id="Cpg3tdYtjGPuZfx2R8Dj">
    <mxGraphModel dx="1364" dy="843" grid="1" gridSize="10" guides="1" tooltips="1" connect="1" arrows="1" fold="1" page="1" pageScale="1" pageWidth="827" pageHeight="1169" math="0" shadow="0">
      <root>
        <mxCell id="0" />
        <mxCell id="1" parent="0" />
        <mxCell id="ZoqcuJbIKgvJJPkICHRn-1" value="create_participant()&lt;div&gt;创建参与者&lt;/div&gt;" style="rounded=0;whiteSpace=wrap;html=1;" parent="1" vertex="1">
          <mxGeometry x="200" y="160" width="120" height="60" as="geometry" />
        </mxCell>
        <mxCell id="ZoqcuJbIKgvJJPkICHRn-3" value="register_type()&lt;div&gt;用于topic数据序列化和反序列化&lt;/div&gt;" style="rounded=0;whiteSpace=wrap;html=1;" parent="1" vertex="1">
          <mxGeometry x="200" y="280" width="120" height="60" as="geometry" />
        </mxCell>
        <mxCell id="ZoqcuJbIKgvJJPkICHRn-5" value="create_topic()&lt;div&gt;创建topic&lt;/div&gt;" style="rounded=0;whiteSpace=wrap;html=1;" parent="1" vertex="1">
          <mxGeometry x="200" y="400" width="120" height="60" as="geometry" />
        </mxCell>
        <mxCell id="ZoqcuJbIKgvJJPkICHRn-7" value="create_participant()&lt;div&gt;创建参与者&lt;/div&gt;" style="rounded=0;whiteSpace=wrap;html=1;" parent="1" vertex="1">
          <mxGeometry x="560" y="160" width="120" height="60" as="geometry" />
        </mxCell>
        <mxCell id="ZoqcuJbIKgvJJPkICHRn-8" value="register_type()&lt;div&gt;用于topic数据序列化和反序列化&lt;/div&gt;" style="rounded=0;whiteSpace=wrap;html=1;" parent="1" vertex="1">
          <mxGeometry x="560" y="280" width="120" height="60" as="geometry" />
        </mxCell>
        <mxCell id="ZoqcuJbIKgvJJPkICHRn-9" value="" style="endArrow=none;dashed=1;html=1;dashPattern=1 3;strokeWidth=2;rounded=0;exitX=1;exitY=0.5;exitDx=0;exitDy=0;" parent="1" source="ZoqcuJbIKgvJJPkICHRn-1" edge="1">
          <mxGeometry width="50" height="50" relative="1" as="geometry">
            <mxPoint x="410" y="215" as="sourcePoint" />
            <mxPoint x="400" y="190" as="targetPoint" />
          </mxGeometry>
        </mxCell>
        <mxCell id="ZoqcuJbIKgvJJPkICHRn-10" value="PDP" style="rounded=0;whiteSpace=wrap;html=1;" parent="1" vertex="1">
          <mxGeometry x="400" y="170" width="80" height="40" as="geometry" />
        </mxCell>
        <mxCell id="ZoqcuJbIKgvJJPkICHRn-11" value="" style="endArrow=none;dashed=1;html=1;dashPattern=1 3;strokeWidth=2;rounded=0;exitX=1;exitY=0.5;exitDx=0;exitDy=0;" parent="1" edge="1">
          <mxGeometry width="50" height="50" relative="1" as="geometry">
            <mxPoint x="480" y="189.66" as="sourcePoint" />
            <mxPoint x="560" y="189.66" as="targetPoint" />
          </mxGeometry>
        </mxCell>
        <mxCell id="ZoqcuJbIKgvJJPkICHRn-12" value="create_topic()&lt;div&gt;创建topic&lt;/div&gt;" style="rounded=0;whiteSpace=wrap;html=1;" parent="1" vertex="1">
          <mxGeometry x="560" y="400" width="120" height="60" as="geometry" />
        </mxCell>
        <mxCell id="ZoqcuJbIKgvJJPkICHRn-13" value="create_datawriter()&lt;div&gt;创建writer&lt;/div&gt;" style="rounded=0;whiteSpace=wrap;html=1;" parent="1" vertex="1">
          <mxGeometry x="200" y="640" width="120" height="60" as="geometry" />
        </mxCell>
        <mxCell id="ZoqcuJbIKgvJJPkICHRn-14" value="create_datareader()&lt;div&gt;创建reader&lt;/div&gt;" style="rounded=0;whiteSpace=wrap;html=1;" parent="1" vertex="1">
          <mxGeometry x="560" y="640" width="120" height="60" as="geometry" />
        </mxCell>
        <mxCell id="ZoqcuJbIKgvJJPkICHRn-15" value="" style="endArrow=none;dashed=1;html=1;dashPattern=1 3;strokeWidth=2;rounded=0;exitX=1;exitY=0.5;exitDx=0;exitDy=0;entryX=0.005;entryY=0.9;entryDx=0;entryDy=0;entryPerimeter=0;" parent="1" target="ZoqcuJbIKgvJJPkICHRn-16" edge="1">
          <mxGeometry width="50" height="50" relative="1" as="geometry">
            <mxPoint x="320" y="670" as="sourcePoint" />
            <mxPoint x="400" y="670" as="targetPoint" />
          </mxGeometry>
        </mxCell>
        <mxCell id="ZoqcuJbIKgvJJPkICHRn-16" value="EDP" style="rounded=0;whiteSpace=wrap;html=1;" parent="1" vertex="1">
          <mxGeometry x="400" y="570" width="80" height="40" as="geometry" />
        </mxCell>
        <mxCell id="ZoqcuJbIKgvJJPkICHRn-17" value="" style="endArrow=none;dashed=1;html=1;dashPattern=1 3;strokeWidth=2;rounded=0;exitX=1.027;exitY=0.914;exitDx=0;exitDy=0;exitPerimeter=0;" parent="1" source="ZoqcuJbIKgvJJPkICHRn-16" edge="1">
          <mxGeometry width="50" height="50" relative="1" as="geometry">
            <mxPoint x="480" y="669.66" as="sourcePoint" />
            <mxPoint x="560" y="669.66" as="targetPoint" />
          </mxGeometry>
        </mxCell>
        <mxCell id="ZoqcuJbIKgvJJPkICHRn-18" value="write()&lt;div&gt;发送topic数据&lt;/div&gt;" style="rounded=0;whiteSpace=wrap;html=1;" parent="1" vertex="1">
          <mxGeometry x="200" y="760" width="120" height="60" as="geometry" />
        </mxCell>
        <mxCell id="ZoqcuJbIKgvJJPkICHRn-19" value="take_next_sample()&lt;div&gt;读取topic数据&lt;/div&gt;" style="rounded=0;whiteSpace=wrap;html=1;" parent="1" vertex="1">
          <mxGeometry x="560" y="760" width="120" height="60" as="geometry" />
        </mxCell>
        <mxCell id="ZoqcuJbIKgvJJPkICHRn-23" value="UDP/TCP/&lt;span style=&quot;background-color: transparent; color: light-dark(rgb(0, 0, 0), rgb(255, 255, 255));&quot;&gt;SHM&lt;/span&gt;" style="rounded=0;whiteSpace=wrap;html=1;" parent="1" vertex="1">
          <mxGeometry x="390" y="770" width="100" height="40" as="geometry" />
        </mxCell>
        <mxCell id="ZoqcuJbIKgvJJPkICHRn-33" value="" style="shape=flexArrow;endArrow=classic;html=1;rounded=0;exitX=1;exitY=0.5;exitDx=0;exitDy=0;" parent="1" source="ZoqcuJbIKgvJJPkICHRn-18" edge="1">
          <mxGeometry width="50" height="50" relative="1" as="geometry">
            <mxPoint x="330" y="789.66" as="sourcePoint" />
            <mxPoint x="390" y="789.66" as="targetPoint" />
          </mxGeometry>
        </mxCell>
        <mxCell id="ZoqcuJbIKgvJJPkICHRn-34" value="" style="shape=flexArrow;endArrow=classic;html=1;rounded=0;exitX=1;exitY=0.5;exitDx=0;exitDy=0;" parent="1" edge="1">
          <mxGeometry width="50" height="50" relative="1" as="geometry">
            <mxPoint x="490" y="790" as="sourcePoint" />
            <mxPoint x="560" y="789.66" as="targetPoint" />
          </mxGeometry>
        </mxCell>
        <mxCell id="ZoqcuJbIKgvJJPkICHRn-35" value="" style="endArrow=classic;html=1;rounded=0;exitX=0.5;exitY=1;exitDx=0;exitDy=0;entryX=0.5;entryY=0;entryDx=0;entryDy=0;" parent="1" source="ZoqcuJbIKgvJJPkICHRn-1" target="ZoqcuJbIKgvJJPkICHRn-3" edge="1">
          <mxGeometry width="50" height="50" relative="1" as="geometry">
            <mxPoint x="300" y="260" as="sourcePoint" />
            <mxPoint x="350" y="210" as="targetPoint" />
          </mxGeometry>
        </mxCell>
        <mxCell id="ZoqcuJbIKgvJJPkICHRn-36" value="" style="endArrow=classic;html=1;rounded=0;exitX=0.5;exitY=1;exitDx=0;exitDy=0;entryX=0.5;entryY=0;entryDx=0;entryDy=0;" parent="1" edge="1">
          <mxGeometry width="50" height="50" relative="1" as="geometry">
            <mxPoint x="259.66" y="340" as="sourcePoint" />
            <mxPoint x="259.66" y="400" as="targetPoint" />
          </mxGeometry>
        </mxCell>
        <mxCell id="ZoqcuJbIKgvJJPkICHRn-37" value="" style="endArrow=classic;html=1;rounded=0;exitX=0.5;exitY=1;exitDx=0;exitDy=0;entryX=0.5;entryY=0;entryDx=0;entryDy=0;" parent="1" edge="1">
          <mxGeometry width="50" height="50" relative="1" as="geometry">
            <mxPoint x="259.66" y="460" as="sourcePoint" />
            <mxPoint x="259.66" y="520" as="targetPoint" />
          </mxGeometry>
        </mxCell>
        <mxCell id="ZoqcuJbIKgvJJPkICHRn-38" value="" style="endArrow=classic;html=1;rounded=0;exitX=0.5;exitY=1;exitDx=0;exitDy=0;entryX=0.5;entryY=0;entryDx=0;entryDy=0;" parent="1" edge="1">
          <mxGeometry width="50" height="50" relative="1" as="geometry">
            <mxPoint x="259.66" y="700" as="sourcePoint" />
            <mxPoint x="259.66" y="760" as="targetPoint" />
          </mxGeometry>
        </mxCell>
        <mxCell id="ZoqcuJbIKgvJJPkICHRn-39" value="" style="endArrow=classic;html=1;rounded=0;exitX=0.5;exitY=1;exitDx=0;exitDy=0;entryX=0.5;entryY=0;entryDx=0;entryDy=0;" parent="1" edge="1">
          <mxGeometry width="50" height="50" relative="1" as="geometry">
            <mxPoint x="619.6600000000001" y="220" as="sourcePoint" />
            <mxPoint x="619.6600000000001" y="280" as="targetPoint" />
          </mxGeometry>
        </mxCell>
        <mxCell id="ZoqcuJbIKgvJJPkICHRn-40" value="" style="endArrow=classic;html=1;rounded=0;exitX=0.5;exitY=1;exitDx=0;exitDy=0;entryX=0.5;entryY=0;entryDx=0;entryDy=0;" parent="1" edge="1">
          <mxGeometry width="50" height="50" relative="1" as="geometry">
            <mxPoint x="619.6600000000001" y="340" as="sourcePoint" />
            <mxPoint x="619.6600000000001" y="400" as="targetPoint" />
          </mxGeometry>
        </mxCell>
        <mxCell id="ZoqcuJbIKgvJJPkICHRn-41" value="" style="endArrow=classic;html=1;rounded=0;exitX=0.5;exitY=1;exitDx=0;exitDy=0;entryX=0.5;entryY=0;entryDx=0;entryDy=0;" parent="1" edge="1">
          <mxGeometry width="50" height="50" relative="1" as="geometry">
            <mxPoint x="619.6600000000001" y="460" as="sourcePoint" />
            <mxPoint x="619.6600000000001" y="520" as="targetPoint" />
          </mxGeometry>
        </mxCell>
        <mxCell id="ZoqcuJbIKgvJJPkICHRn-42" value="" style="endArrow=classic;html=1;rounded=0;exitX=0.5;exitY=1;exitDx=0;exitDy=0;entryX=0.5;entryY=0;entryDx=0;entryDy=0;" parent="1" edge="1">
          <mxGeometry width="50" height="50" relative="1" as="geometry">
            <mxPoint x="619.6600000000001" y="700" as="sourcePoint" />
            <mxPoint x="619.6600000000001" y="760" as="targetPoint" />
          </mxGeometry>
        </mxCell>
        <mxCell id="uGeyRHkb-I9cfztLsH06-1" value="发布端(Publisher)" style="text;html=1;align=center;verticalAlign=middle;whiteSpace=wrap;rounded=0;fontStyle=1;fontSize=14;" parent="1" vertex="1">
          <mxGeometry x="220" y="90" width="80" height="40" as="geometry" />
        </mxCell>
        <mxCell id="uGeyRHkb-I9cfztLsH06-2" value="订阅端(Subscriber)" style="text;html=1;align=center;verticalAlign=middle;whiteSpace=wrap;rounded=0;fontStyle=1;fontSize=14;" parent="1" vertex="1">
          <mxGeometry x="570" y="90" width="90" height="40" as="geometry" />
        </mxCell>
        <mxCell id="B0Bkc7tE2xluLaAN7S_U-1" value="create_publisher()&lt;div&gt;创建publisher&lt;/div&gt;" style="rounded=0;whiteSpace=wrap;html=1;" parent="1" vertex="1">
          <mxGeometry x="200" y="520" width="120" height="60" as="geometry" />
        </mxCell>
        <mxCell id="B0Bkc7tE2xluLaAN7S_U-2" value="create_subscriber()&lt;div&gt;创建subscriber&lt;/div&gt;" style="rounded=0;whiteSpace=wrap;html=1;" parent="1" vertex="1">
          <mxGeometry x="560" y="520" width="120" height="60" as="geometry" />
        </mxCell>
        <mxCell id="B0Bkc7tE2xluLaAN7S_U-3" value="" style="endArrow=classic;html=1;rounded=0;exitX=0.5;exitY=1;exitDx=0;exitDy=0;entryX=0.5;entryY=0;entryDx=0;entryDy=0;" parent="1" edge="1">
          <mxGeometry width="50" height="50" relative="1" as="geometry">
            <mxPoint x="619.71" y="580" as="sourcePoint" />
            <mxPoint x="619.71" y="640" as="targetPoint" />
          </mxGeometry>
        </mxCell>
        <mxCell id="B0Bkc7tE2xluLaAN7S_U-4" value="" style="endArrow=classic;html=1;rounded=0;exitX=0.5;exitY=1;exitDx=0;exitDy=0;entryX=0.5;entryY=0;entryDx=0;entryDy=0;" parent="1" edge="1">
          <mxGeometry width="50" height="50" relative="1" as="geometry">
            <mxPoint x="259.71000000000004" y="580" as="sourcePoint" />
            <mxPoint x="259.71000000000004" y="640" as="targetPoint" />
          </mxGeometry>
        </mxCell>
        <mxCell id="B0Bkc7tE2xluLaAN7S_U-5" value="" style="endArrow=none;dashed=1;html=1;dashPattern=1 3;strokeWidth=2;rounded=0;exitX=1;exitY=0.5;exitDx=0;exitDy=0;entryX=0;entryY=0.25;entryDx=0;entryDy=0;" parent="1" source="B0Bkc7tE2xluLaAN7S_U-1" target="ZoqcuJbIKgvJJPkICHRn-16" edge="1">
          <mxGeometry width="50" height="50" relative="1" as="geometry">
            <mxPoint x="330" y="680" as="sourcePoint" />
            <mxPoint x="410" y="616" as="targetPoint" />
          </mxGeometry>
        </mxCell>
        <mxCell id="B0Bkc7tE2xluLaAN7S_U-6" value="" style="endArrow=none;dashed=1;html=1;dashPattern=1 3;strokeWidth=2;rounded=0;exitX=1;exitY=0.25;exitDx=0;exitDy=0;entryX=0;entryY=0.5;entryDx=0;entryDy=0;" parent="1" source="ZoqcuJbIKgvJJPkICHRn-16" target="B0Bkc7tE2xluLaAN7S_U-2" edge="1">
          <mxGeometry width="50" height="50" relative="1" as="geometry">
            <mxPoint x="492" y="617" as="sourcePoint" />
            <mxPoint x="570" y="679.66" as="targetPoint" />
          </mxGeometry>
        </mxCell>
      </root>
    </mxGraphModel>
  </diagram>
</mxfile>
